<svg xmlns="http://www.w3.org/2000/svg" version="1.1" xmlns:xlink="http://www.w3.org/1999/xlink" xmlns:svgjs="http://svgjs.dev/svgjs" width="1000" height="156" viewBox="0 0 1000 156"><g transform="matrix(1,0,0,1,-0.6060359087375673,-0.38768473963519057)"><svg viewBox="0 0 396 62" data-background-color="#ffffff" preserveAspectRatio="xMidYMid meet" height="156" width="1000" xmlns="http://www.w3.org/2000/svg" xmlns:xlink="http://www.w3.org/1999/xlink"><g id="tight-bounds" transform="matrix(1,0,0,1,0.23999054200675118,0.15407983241911438)"><svg viewBox="0 0 395.52 61.691837784414524" height="61.691837784414524" width="395.52"><g><svg viewBox="0 0 471.5857298689366 73.55630650414433" height="61.691837784414524" width="395.52"><g transform="matrix(1,0,0,1,76.0657298689366,10.16588606533399)"><svg viewBox="0 0 395.52 53.22453437347635" height="53.22453437347635" width="395.52"><g id="textblocktransform"><svg viewBox="0 0 395.52 53.22453437347635" height="53.22453437347635" width="395.52" id="textblock"><g><svg viewBox="0 0 395.52 53.22453437347635" height="53.22453437347635" width="395.52"><g transform="matrix(1,0,0,1,0,0)"><svg width="395.52" viewBox="3.130000114440918 -33.08000183105469 250.6099853515625 33.69000244140625" height="53.22453437347635" data-palette-color="#3087d2"><g class="undefined-text-0" data-fill-palette-color="primary" id="text-0"><path d="M23.8-30.66L23.8-30.66 23.34-23.49 23.17-23.44Q21.36-26.15 17.02-26.95L17.02-26.95Q15.65-27.22 14.39-27.22 13.13-27.22 12.24-27 11.35-26.78 10.72-26.37L10.72-26.37Q9.38-25.49 9.38-24.07L9.38-24.07Q9.38-22.22 10.55-21.29L10.55-21.29Q12.01-20.17 15.41-19.71 18.8-19.26 20.85-18.48 22.9-17.7 24.22-16.5L24.22-16.5Q26.71-14.26 26.71-10.16L26.71-10.16Q26.71-4.79 22.66-1.88L22.66-1.88Q19.19 0.61 13.92 0.61L13.92 0.61Q9.67 0.61 5.52-1L5.52-1Q4.15-1.54 3.13-2.25L3.13-2.25 3.39-10.4 3.49-10.47Q6.52-5.25 13.43-5.25L13.43-5.25Q18.33-5.25 19.92-7.62L19.92-7.62Q20.46-8.42 20.46-9.41 20.46-10.4 20.14-11.05 19.82-11.69 19.09-12.16L19.09-12.16Q17.68-13.09 14.33-13.4 10.99-13.72 8.86-14.6 6.74-15.48 5.47-16.77L5.47-16.77Q3.17-19.12 3.17-23.32L3.17-23.32Q3.17-27.66 6.23-30.35L6.23-30.35Q9.33-33.08 14.59-33.08 19.85-33.08 23.8-30.66ZM35.98-3.86Q33.76-5.98 32.48-8.96 31.2-11.94 31.2-15.49 31.2-19.04 32.39-22.22 33.59-25.39 35.81-27.81 38.03-30.22 41.18-31.65 44.33-33.08 48.24-33.08L48.24-33.08Q54.98-33.08 59.59-28.83L59.59-28.83Q64.52-24.29 64.52-16.58L64.52-16.58Q64.52-9.11 59.45-4.15L59.45-4.15Q56.32-1.1 52 0.05L52 0.05Q49.88 0.61 47.03 0.61 44.19 0.61 41.2-0.56 38.21-1.73 35.98-3.86ZM37.99-15.82L37.99-15.82Q37.99-13.55 38.74-11.65 39.5-9.74 40.84-8.37L40.84-8.37Q43.7-5.49 48.19-5.49L48.19-5.49Q52.46-5.49 55.05-8.25L55.05-8.25Q57.69-11.11 57.69-16.04L57.69-16.04Q57.69-20.68 55.17-23.78L55.17-23.78Q52.46-27.1 47.75-27.1L47.75-27.1Q43.19-27.1 40.5-23.73L40.5-23.73Q37.99-20.58 37.99-15.82ZM70.33 0L70.33-32.64Q73.73-33.08 77.29-33.08L77.29-33.08Q83.93-33.08 87.39-29.97 90.84-26.86 90.84-20.65L90.84-20.65Q90.84-15.11 87.06-11.89L87.06-11.89Q83.52-8.86 77.95-8.86L77.95-8.86Q77.31-8.86 76.56-8.94L76.56-8.94 76.56 0 70.33 0ZM78.02-27.2L78.02-27.2Q77.29-27.2 76.56-27.15L76.56-27.15 76.56-14.31Q77.34-14.21 78.46-14.21 79.58-14.21 80.81-14.69 82.03-15.16 82.86-16.02L82.86-16.02Q84.59-17.8 84.59-20.7L84.59-20.7Q84.59-27.2 78.02-27.2ZM98.5-3.86Q96.28-5.98 95-8.96 93.72-11.94 93.72-15.49 93.72-19.04 94.91-22.22 96.11-25.39 98.33-27.81 100.55-30.22 103.7-31.65 106.85-33.08 110.76-33.08L110.76-33.08Q117.5-33.08 122.11-28.83L122.11-28.83Q127.04-24.29 127.04-16.58L127.04-16.58Q127.04-9.11 121.97-4.15L121.97-4.15Q118.84-1.1 114.52 0.05L114.52 0.05Q112.39 0.61 109.55 0.61 106.71 0.61 103.72-0.56 100.72-1.73 98.5-3.86ZM100.51-15.82L100.51-15.82Q100.51-13.55 101.26-11.65 102.02-9.74 103.36-8.37L103.36-8.37Q106.22-5.49 110.71-5.49L110.71-5.49Q114.98-5.49 117.57-8.25L117.57-8.25Q120.21-11.11 120.21-16.04L120.21-16.04Q120.21-20.68 117.69-23.78L117.69-23.78Q114.98-27.1 110.27-27.1L110.27-27.1Q105.71-27.1 103.02-23.73L103.02-23.73Q100.51-20.58 100.51-15.82ZM149.48 0.2L143.81-12.62Q143.08-12.57 142.25-12.57 141.42-12.57 139.78-12.7L139.78-12.7 139.78 0 133.32 0 133.32-32.64Q136.73-33.08 141.71-33.08L141.71-33.08Q148.5-33.08 151.83-30.58 155.17-28.08 155.17-22.85L155.17-22.85Q155.17-18.8 152.11-15.92L152.11-15.92Q151.11-14.99 149.82-14.31L149.82-14.31 154.8-3.81Q156.26-0.56 157.05 0.05L157.05 0.05 156.92 0.17Q154.56-0.22 149.48 0.2L149.48 0.2ZM142.18-27.32L142.18-27.32Q140.93-27.32 139.78-27.2L139.78-27.2 139.78-17.87Q140.98-17.7 142.59-17.7 144.2-17.7 145.3-17.98 146.4-18.26 147.21-18.85L147.21-18.85Q148.94-20.14 148.94-22.73 148.94-25.32 147.13-26.37L147.13-26.37Q145.45-27.32 142.18-27.32ZM174.16-27L174.16 0.15Q172.99 0 168.13 0L168.13 0 167.35 0 167.35-27 162.51-27Q160.36-27 159.97-26.78 159.58-26.56 159.36-26.39L159.36-26.39 159.29-26.42 159.29-32.67 159.36-32.74Q160.17-32.47 163.71-32.47L163.71-32.47 179.02-32.47Q181.16-32.47 181.55-32.69 181.95-32.91 182.17-33.08L182.17-33.08 182.24-33.06 182.24-26.81 182.17-26.73Q181.36-27 177.82-27L177.82-27 174.16-27ZM192.15-7.03L189.85 0.2Q187.75 0 184.95 0L184.95 0 183.02 0 193.64-29.76Q194.35-31.76 194.35-32.09 194.35-32.42 194.32-32.5L194.32-32.5 194.35-32.54Q195.93-32.47 197.71-32.47L197.71-32.47Q199.18-32.47 201.23-32.52L201.23-32.52 201.25-32.47Q201.21-32.37 201.21-32.2L201.21-32.2Q201.21-31.74 201.94-29.74L201.94-29.74 212.78 0.07Q212.29 0.05 211.63 0.05L211.63 0.05Q211.63 0.05 210.36 0L210.36 0Q209.75 0 209.26 0L209.26 0 205.48 0 203.18-7.03 192.15-7.03ZM194-12.89L201.28-12.89 197.59-24.24 194-12.89Z" fill="#3087d2" data-fill-palette-color="primary"></path><path d="M221.64-7.03L219.35 0.2Q217.25 0 214.44 0L214.44 0 212.51 0 223.13-29.76Q223.84-31.76 223.84-32.09 223.84-32.42 223.82-32.5L223.82-32.5 223.84-32.54Q225.43-32.47 227.21-32.47L227.21-32.47Q228.67-32.47 230.72-32.52L230.72-32.52 230.75-32.47Q230.7-32.37 230.7-32.2L230.7-32.2Q230.7-31.74 231.43-29.74L231.43-29.74 242.27 0.07Q241.78 0.05 241.12 0.05L241.12 0.05Q241.12 0.05 239.86 0L239.86 0Q239.24 0 238.76 0L238.76 0 234.97 0 232.68-7.03 221.64-7.03ZM223.5-12.89L230.77-12.89 227.09-24.24 223.5-12.89ZM246.96 0L246.96-32.57Q249.4-32.47 249.91-32.47L249.91-32.47 251.67-32.47Q252.96-32.47 253.74-32.67L253.74-32.67 253.72 0 246.96 0Z" fill="#e086cc" data-fill-palette-color="secondary"></path></g></svg></g></svg></g></svg></g></svg></g><g><svg viewBox="0 0 63.5006946921838 73.55630650414433" height="73.55630650414433" width="63.5006946921838"><g><svg xmlns="http://www.w3.org/2000/svg" xmlns:xlink="http://www.w3.org/1999/xlink" version="1.1" x="0" y="0" viewBox="9.63800048828125 3.246999979019165 80.7239990234375 93.50699615478516" enable-background="new 0 0 100 100" xml:space="preserve" height="73.55630650414433" width="63.5006946921838" class="icon-icon-0" data-fill-palette-color="accent" id="icon-0"><g fill="#e086cc" data-fill-palette-color="accent"><g fill="#e086cc" data-fill-palette-color="accent"><polygon points="36.703,11.011 9.638,26.636 9.638,38.757 36.703,23.131 63.767,38.757 63.767,26.636   " fill="#e086cc" data-fill-palette-color="accent"></polygon></g><g fill="#e086cc" data-fill-palette-color="accent"><polygon points="63.298,89.092 36.233,73.467 36.233,61.348 63.298,76.973 90.362,61.348 90.362,73.467   " fill="#e086cc" data-fill-palette-color="accent"></polygon></g><g fill="#e086cc" data-fill-palette-color="accent"><polygon points="9.638,42.012 36.703,26.386 47.198,32.446 20.134,48.072 20.134,79.324 9.638,73.264   " fill="#e086cc" data-fill-palette-color="accent"></polygon></g><g fill="#e086cc" data-fill-palette-color="accent"><polygon points="77.083,18.872 50.018,3.247 39.522,9.307 66.586,24.932 66.586,56.184 77.083,50.124   " fill="#e086cc" data-fill-palette-color="accent"></polygon></g><g fill="#e086cc" data-fill-palette-color="accent"><polygon points="23.01,81.127 23.011,49.876 33.507,43.816 33.507,75.068 60.571,90.693 50.075,96.754   " fill="#e086cc" data-fill-palette-color="accent"></polygon></g><g fill="#e086cc" data-fill-palette-color="accent"><polygon points="90.362,58.092 90.362,26.84 79.866,20.78 79.866,52.031 52.802,67.658 63.298,73.719   " fill="#e086cc" data-fill-palette-color="accent"></polygon></g></g></svg></g></svg></g></svg></g><defs></defs></svg><rect width="395.52" height="61.691837784414524" fill="none" stroke="none" visibility="hidden"></rect></g></svg></g></svg>